# File created by Blade
# Date/Time:  Wed Sep 24 20:15:16 2014
# Frame Rate: 120.000 fps
#------------------------------------------------------
:FULLY-SPECIFIED
:DEGREES
2643
root -6.346116 32.784200 -5.775152 15.829573 -0.809387 -3.183260
Spine -18.840395 4.907995 -1.177947
Head -12.764171 -35.873579 20.404544
LeftShoulder -3.265876 17.067052 12.209226
LeftArm 22.466071 29.931395 -74.105210
LeftForeArm -2.572339 -0.000000 20.476113
LeftHand -22.191742 -0.000000 -3.709570
LeftHandThumb1 -26.253704 0.000000 33.147579
RightShoulder -15.024451 15.235786 -10.493822
RightArm 22.830277 -71.509308 78.945212
RightForeArm 69.500711 -0.000000 66.931321
RightHand -20.204953 -0.000000 25.120343
RightHandThumb1 -24.326973 -0.000000 -32.862282
LeftUpLeg -13.756372 9.180624 5.186131
LeftLeg 1.425429 -0.000000 -0.000000
LeftFoot -12.719449 8.824919 -18.670364
LeftToeBase 9.848342 -0.000000 -0.000000
RightUpLeg -15.430627 -4.496759 0.323710
RightLeg 3.848368 -0.000000 -0.000000
RightFoot -7.770906 -0.419529 -13.349222
RightToeBase -0.412130 -0.000000 0.000000
2644
root -6.349502 32.782677 -5.781852 15.893147 -0.706488 -3.207712
Spine -18.894219 5.046088 -1.196079
Head -12.931935 -36.179365 20.509884
LeftShoulder -3.208329 17.021201 12.239457
LeftArm 22.534544 30.017126 -74.109342
LeftForeArm -2.641009 -0.000000 20.476664
LeftHand -22.138965 0.000000 -3.693233
LeftHandThumb1 -26.253704 0.000000 33.147579
RightShoulder -14.828098 15.299023 -10.578281
RightArm 24.273564 -72.455391 77.492977
RightForeArm 70.481982 -0.000000 66.853713
RightHand -20.004710 -0.000000 24.552673
RightHandThumb1 -24.326973 -0.000000 -32.862282
LeftUpLeg -13.863756 9.132468 5.218433
LeftLeg 1.448205 -0.000000 -0.000000
LeftFoot -12.697902 8.821627 -18.564960
LeftToeBase 9.774007 -0.000000 -0.000000
RightUpLeg -15.509605 -4.513709 0.372204
RightLeg 3.879626 -0.000000 -0.000000
RightFoot -7.780171 -0.512606 -13.374585
RightToeBase -0.331513 -0.000000 0.000000
2645
root -6.353555 32.782064 -5.787483 15.933017 -0.559502 -3.217221
Spine -18.911743 5.158679 -1.239189
Head -13.133534 -36.476324 20.684836
LeftShoulder -3.111922 16.940755 12.284801
LeftArm 22.557449 30.049286 -74.149721
LeftForeArm -2.669271 -0.000000 20.482892
LeftHand -22.119459 -0.000000 -3.739786
LeftHandThumb1 -26.253704 0.000000 33.147579
RightShoulder -14.683125 15.319575 -10.633676
RightArm 25.663839 -73.130260 76.038905
RightForeArm 71.161874 -0.000000 66.772762
RightHand -19.676341 0.000000 24.101706
RightHandThumb1 -24.326973 -0.000000 -32.862282
LeftUpLeg -13.959660 9.070876 5.246018
LeftLeg 1.480687 -0.000000 -0.000000
LeftFoot -12.670103 8.750983 -18.532108
LeftToeBase 9.731360 -0.000000 -0.000000
RightUpLeg -15.545020 -4.599376 0.420041
RightLeg 3.882495 -0.000000 -0.000000
RightFoot -7.784557 -0.572306 -13.374012
RightToeBase -0.308240 -0.000000 0.000000
2646
root -6.355801 32.781726 -5.793108 15.973090 -0.406019 -3.221351
Spine -18.926719 5.269426 -1.279246
Head -13.351564 -36.769345 20.858517
LeftShoulder -2.999768 16.845632 12.318364
LeftArm 22.548269 30.089520 -74.184727
LeftForeArm -2.687750 -0.000000 20.519048
LeftHand -22.165132 -0.000000 -3.799358
LeftHandThumb1 -26.253704 0.000000 33.147579
RightShoulder -14.562559 15.329416 -10.712705
RightArm 26.026568 -73.363348 75.658676
RightForeArm 71.519802 -0.000000 66.656203
RightHand -19.605813 0.000000 23.955921
RightHandThumb1 -24.326973 -0.000000 -32.862282
LeftUpLeg -14.051729 9.001824 5.266169
LeftLeg 1.500843 -0.000000 -0.000000
LeftFoot -12.650256 8.690952 -18.541905
LeftToeBase 9.756340 -0.000000 -0.000000
RightUpLeg -15.579672 -4.676226 0.454625
RightLeg 3.882806 -0.000000 -0.000000
RightFoot -7.776911 -0.627286 -13.373556
RightToeBase -0.311917 -0.000000 0.000000
2647
root -6.359616 32.781797 -5.798127 15.989868 -0.272425 -3.234038
Spine -18.910918 5.353294 -1.301305
Head -13.541962 -37.009996 21.018541
LeftShoulder -2.967364 16.749466 12.326226
LeftArm 22.580759 30.177884 -74.172444
LeftForeArm -2.753978 0.000000 20.510137
LeftHand -22.161146 -0.000000 -3.823507
LeftHandThumb1 -26.253704 0.000000 33.147579
RightShoulder -14.389301 15.281559 -10.768333
RightArm 25.933071 -73.363655 75.704972
RightForeArm 71.701638 -0.000000 66.594909
RightHand -19.375680 -0.000000 24.006343
RightHandThumb1 -24.326973 -0.000000 -32.862282
LeftUpLeg -14.109838 8.978897 5.290292
LeftLeg 1.505008 -0.000000 -0.000000
LeftFoot -12.596243 8.612359 -18.493776
LeftToeBase 9.726422 -0.000000 -0.000000
RightUpLeg -15.594656 -4.719249 0.491447
RightLeg 3.891969 -0.000000 -0.000000
RightFoot -7.766583 -0.709836 -13.368927
RightToeBase -0.289939 -0.000000 0.000000
2648
root -6.357692 32.782159 -5.801809 15.976397 -0.071554 -3.216662
Spine -18.845427 5.382743 -1.324798
Head -13.771851 -37.236755 21.220626
LeftShoulder -2.914725 16.667234 12.321180
LeftArm 22.639043 30.220952 -74.171569
LeftForeArm -2.760400 -0.000000 20.471057
LeftHand -22.110080 -0.000000 -3.901881
LeftHandThumb1 -26.253704 0.000000 33.147579
RightShoulder -14.279500 15.242747 -10.815603
RightArm 25.488876 -73.135280 76.059445
RightForeArm 71.795633 -0.000000 66.585629
RightHand -19.366240 -0.000000 23.451191
RightHandThumb1 -24.326973 -0.000000 -32.862282
LeftUpLeg -14.148605 8.834693 5.306358
LeftLeg 1.515881 -0.000000 -0.000000
LeftFoot -12.565590 8.576956 -18.480787
LeftToeBase 9.737497 -0.000000 -0.000000
RightUpLeg -15.561761 -4.861977 0.506866
RightLeg 3.876905 -0.000000 -0.000000
RightFoot -7.759126 -0.729066 -13.300127
RightToeBase -0.334373 -0.000000 0.000000
2649
root -6.359491 32.782510 -5.803373 15.975284 0.085146 -3.214151
Spine -18.806369 5.458565 -1.372205
Head -14.007438 -37.486206 21.451984
LeftShoulder -2.899122 16.612684 12.331972
LeftArm 22.742782 30.316531 -74.124932
LeftForeArm -2.742750 -0.000000 20.442015
LeftHand -22.084717 0.000000 -3.902166
LeftHandThumb1 -26.253704 0.000000 33.147579
RightShoulder -14.238842 15.340597 -10.842149
RightArm 24.230489 -72.750561 77.151579
RightForeArm 71.933517 -0.000000 66.653545
RightHand -19.287641 -0.000000 23.113259
RightHandThumb1 -24.326973 -0.000000 -32.862282
LeftUpLeg -14.180285 8.769614 5.324618
LeftLeg 1.507639 -0.000000 -0.000000
LeftFoot -12.494199 8.522997 -18.520095
LeftToeBase 9.597173 -0.000000 -0.000000
RightUpLeg -15.546796 -4.945949 0.531964
RightLeg 3.876367 -0.000000 -0.000000
RightFoot -7.758839 -0.788576 -13.278019
RightToeBase -0.304739 -0.000000 0.000000
2650
root -6.366258 32.782743 -5.802691 15.966603 0.192825 -3.231971
Spine -18.768806 5.577073 -1.428519
Head -14.226293 -37.713718 21.705906
LeftShoulder -2.865644 16.589534 12.361027
LeftArm 22.826498 30.361990 -74.084728
LeftForeArm -2.735742 0.000000 20.452496
LeftHand -22.091906 -0.000000 -3.846494
LeftHandThumb1 -26.253704 0.000000 33.147579
RightShoulder -14.266191 15.211015 -10.875894
RightArm 23.319296 -72.190278 77.997826
RightForeArm 71.793111 -0.000000 66.657832
RightHand -19.109541 -0.000000 23.002430
RightHandThumb1 -24.326973 -0.000000 -32.862282
LeftUpLeg -14.200068 8.860445 5.336766
LeftLeg 1.510995 -0.000000 -0.000000
LeftFoot -12.456980 8.344802 -18.560361
LeftToeBase 9.750195 -0.000000 -0.000000
RightUpLeg -15.519248 -4.937275 0.563666
RightLeg 3.865995 -0.000000 -0.000000
RightFoot -7.751241 -0.888443 -13.267976
RightToeBase -0.256337 -0.000000 0.000000
2651
root -6.372064 32.783692 -5.804594 15.992773 0.290658 -3.248311
Spine -18.771607 5.644765 -1.464017
Head -14.402485 -37.884792 21.901134
LeftShoulder -2.880080 16.575191 12.374949
LeftArm 22.849438 30.381034 -74.077598
LeftForeArm -2.698905 0.000000 20.513368
LeftHand -22.129457 0.000000 -3.716389
LeftHandThumb1 -26.253704 0.000000 33.147579
RightShoulder -14.281630 15.179653 -10.903837
RightArm 22.173592 -71.601481 79.063296
RightForeArm 71.613815 -0.000000 66.687789
RightHand -18.857285 -0.000000 22.879419
RightHandThumb1 -24.326973 -0.000000 -32.862282
LeftUpLeg -14.238413 8.917700 5.349402
LeftLeg 1.473256 -0.000000 -0.000000
LeftFoot -12.364347 8.230072 -18.509022
LeftToeBase 9.685352 -0.000000 -0.000000
RightUpLeg -15.540002 -4.922761 0.589272
RightLeg 3.874137 -0.000000 -0.000000
RightFoot -7.725554 -0.964612 -13.234148
RightToeBase -0.272932 -0.000000 0.000000
